<svg xmlns="http://www.w3.org/2000/svg" xmlns:xlink="http://www.w3.org/1999/xlink" viewBox="0 0 256 256"><defs><style>.cls-1{fill:none;}.cls-2{fill:#f4f4f4;}.cls-3{opacity:0.05;fill:url(#New_Pattern_Swatch_1);}.cls-4{fill:#e64d3c;}.cls-5{fill:#c73227;}.cls-6{fill:#58b847;}.cls-7{fill:#f5c21b;}.cls-8{fill:#63bb48;}.cls-9{fill:#589b46;}.cls-10{fill:#7dc14a;}.cls-11{fill:#50ae48;}.cls-12{fill:#f5ad1b;}.cls-13{fill:#d73c31;}.cls-14{fill:#f6d616;}.cls-15{fill:#b52427;}</style><pattern id="New_Pattern_Swatch_1" data-name="New Pattern Swatch 1" width="43.95" height="26" patternTransform="matrix(-0.25, 0.73, -0.73, -0.25, -8.16, -71.61)" patternUnits="userSpaceOnUse" viewBox="0 0 43.95 26"><rect class="cls-1" width="43.95" height="26"/><path d="M16,16a4,4,0,0,1,4,4,6,6,0,0,0,6,6V24a4,4,0,0,1-4-4,6,6,0,0,0-6-6,4,4,0,0,1-4-4A6,6,0,0,0,6,4,4,4,0,0,1,2,0H0A6,6,0,0,0,6,6a4,4,0,0,1,4,4A6,6,0,0,0,16,16Zm18-6.54L42.54,18,44,16.54,35.46,8.05Z"/></pattern></defs><title>Artboard 11</title><g id="Layer_2" data-name="Layer 2"><rect class="cls-2" width="256" height="256"/></g><g id="Layer_1" data-name="Layer 1"><rect class="cls-3" width="256" height="256"/></g><g id="Layer_3" data-name="Layer 3"><polygon class="cls-4" points="194.41 162.98 194.41 127.97 128 162.98 128.24 198 194.41 162.98"/><polygon class="cls-5" points="128.25 198 128.01 162.98 61.59 127.97 61.59 162.98 128.25 198"/><polygon class="cls-6" points="94.8 110.99 61.59 93.33 61.59 128.44 94.8 145.88 94.8 110.99"/><polygon class="cls-7" points="161.32 110.96 194.41 93.23 161.32 75.51 128 93.23 161.32 110.96"/><polygon class="cls-8" points="94.92 110.96 61.59 93.23 94.92 75.51 128 93.23 94.92 110.96"/><polygon class="cls-8" points="128 93.23 161.32 75.51 128.24 58 94.92 75.51 128 93.23"/><path class="cls-9" d="M107.19,90.52v4.67a3.87,3.87,0,0,1-.63,2.07,7.65,7.65,0,0,1-3,2.59c-4.87,2.58-12.8,2.57-17.7,0a8,8,0,0,1-3-2.56,4,4,0,0,1-.67-2.15V90.44L82.47,89h24.37A3.76,3.76,0,0,1,107.19,90.52Z"/><path class="cls-9" d="M107.11,95.17a3.94,3.94,0,0,1-.62,2.06,7.75,7.75,0,0,1-3,2.6c-4.89,2.58-12.84,2.56-17.75,0a7.85,7.85,0,0,1-3-2.57A3.84,3.84,0,0,1,82,95.08c0-1.69,1.22-3.37,3.65-4.66A16.28,16.28,0,0,1,89.92,89a23.38,23.38,0,0,1,9.13,0,17.11,17.11,0,0,1,4.36,1.5C105.88,91.76,107.11,93.46,107.11,95.17Z"/><path class="cls-10" d="M107.11,90.5c0,1.69-1.21,3.37-3.65,4.66-4.89,2.58-12.84,2.56-17.75,0-2.47-1.31-3.71-3-3.71-4.71A3.63,3.63,0,0,1,82.31,89a7,7,0,0,1,3.34-3.2c4.89-2.58,12.84-2.56,17.76,0A7.27,7.27,0,0,1,106.77,89,3.74,3.74,0,0,1,107.11,90.5Z"/><path class="cls-9" d="M140.88,72.93V77.6a3.83,3.83,0,0,1-.62,2.06,7.74,7.74,0,0,1-3,2.6c-4.87,2.58-12.8,2.56-17.7,0a7.89,7.89,0,0,1-3-2.57,3.9,3.9,0,0,1-.67-2.14V72.85l.31-1.47h24.37A3.74,3.74,0,0,1,140.88,72.93Z"/><path class="cls-9" d="M140.92,77.55a3.87,3.87,0,0,1-.63,2.07,7.69,7.69,0,0,1-3,2.59c-4.89,2.58-12.84,2.57-17.76,0a8,8,0,0,1-3-2.56,4,4,0,0,1-.67-2.15c0-1.69,1.21-3.38,3.65-4.66a15.82,15.82,0,0,1,4.27-1.48,23.33,23.33,0,0,1,9.12,0,16.49,16.49,0,0,1,4.36,1.51C139.68,74.14,140.92,75.85,140.92,77.55Z"/><path class="cls-10" d="M140.92,72.88c0,1.69-1.22,3.38-3.65,4.66-4.89,2.58-12.84,2.57-17.76,0-2.47-1.3-3.7-3-3.7-4.71a3.66,3.66,0,0,1,.31-1.47,7,7,0,0,1,3.34-3.19c4.88-2.58,12.83-2.57,17.75,0a7.12,7.12,0,0,1,3.36,3.16A3.76,3.76,0,0,1,140.92,72.88Z"/><polygon class="cls-6" points="94.8 110.99 61.59 93.33 61.59 128.44 94.8 145.88 94.8 110.99"/><polygon class="cls-8" points="94.92 110.96 61.59 93.23 94.92 75.51 128 93.23 94.92 110.96"/><polygon class="cls-8" points="128 93.23 161.32 75.51 128.24 58 94.92 75.51 128 93.23"/><path class="cls-9" d="M107.19,90.52v4.67a3.87,3.87,0,0,1-.63,2.07,7.65,7.65,0,0,1-3,2.59c-4.87,2.58-12.8,2.57-17.7,0a8,8,0,0,1-3-2.56,4,4,0,0,1-.67-2.15V90.44L82.47,89h24.37A3.76,3.76,0,0,1,107.19,90.52Z"/><path class="cls-9" d="M107.11,95.17a3.94,3.94,0,0,1-.62,2.06,7.75,7.75,0,0,1-3,2.6c-4.89,2.58-12.84,2.56-17.75,0a7.85,7.85,0,0,1-3-2.57A3.84,3.84,0,0,1,82,95.08c0-1.69,1.22-3.37,3.65-4.66A16.28,16.28,0,0,1,89.92,89a23.38,23.38,0,0,1,9.13,0,17.11,17.11,0,0,1,4.36,1.5C105.88,91.76,107.11,93.46,107.11,95.17Z"/><path class="cls-10" d="M107.11,90.5c0,1.69-1.21,3.37-3.65,4.66-4.89,2.58-12.84,2.56-17.75,0-2.47-1.31-3.71-3-3.71-4.71A3.63,3.63,0,0,1,82.31,89a7,7,0,0,1,3.34-3.2c4.89-2.58,12.84-2.56,17.76,0A7.27,7.27,0,0,1,106.77,89,3.74,3.74,0,0,1,107.11,90.5Z"/><path class="cls-9" d="M140.88,72.93V77.6a3.83,3.83,0,0,1-.62,2.06,7.74,7.74,0,0,1-3,2.6c-4.87,2.58-12.8,2.56-17.7,0a7.89,7.89,0,0,1-3-2.57,3.9,3.9,0,0,1-.67-2.14V72.85l.31-1.47h24.37A3.74,3.74,0,0,1,140.88,72.93Z"/><path class="cls-9" d="M140.92,77.55a3.87,3.87,0,0,1-.63,2.07,7.69,7.69,0,0,1-3,2.59c-4.89,2.58-12.84,2.57-17.76,0a8,8,0,0,1-3-2.56,4,4,0,0,1-.67-2.15c0-1.69,1.21-3.38,3.65-4.66a15.82,15.82,0,0,1,4.27-1.48,23.33,23.33,0,0,1,9.12,0,16.49,16.49,0,0,1,4.36,1.51C139.68,74.14,140.92,75.85,140.92,77.55Z"/><path class="cls-10" d="M140.92,72.88c0,1.69-1.22,3.38-3.65,4.66-4.89,2.58-12.84,2.57-17.76,0-2.47-1.3-3.7-3-3.7-4.71a3.66,3.66,0,0,1,.31-1.47,7,7,0,0,1,3.34-3.19c4.88-2.58,12.83-2.57,17.75,0a7.12,7.12,0,0,1,3.36,3.16A3.76,3.76,0,0,1,140.92,72.88Z"/><polygon class="cls-11" points="95.05 110.99 61.84 93.33 61.84 128.44 95.05 145.88 95.05 110.99"/><polygon class="cls-8" points="95.17 110.96 61.84 93.23 95.17 75.51 128.25 93.23 95.17 110.96"/><polygon class="cls-8" points="128 93.23 161.32 75.51 128.24 58 94.92 75.51 128 93.23"/><polygon class="cls-10" points="128.25 93.19 128.25 128.37 95.05 145.96 95.05 111.03 128.25 93.19"/><polygon class="cls-12" points="128.25 93.19 161.45 111.03 161.45 145.96 128.25 128.37 128.25 93.19"/><polygon class="cls-13" points="128.25 128.37 161.45 145.96 128.25 163.56 95.05 145.96 128.25 128.37"/><polygon class="cls-14" points="194.41 128.5 194.41 93.14 161.2 110.93 161.08 145.97 194.41 128.5"/><path class="cls-9" d="M107.68,86.34v7.93a3.6,3.6,0,0,0-.35-1.55,6.15,6.15,0,0,0-2.14-2.43A5,5,0,0,0,107.68,86.34Z"/><path class="cls-9" d="M84.9,90.23a6.11,6.11,0,0,0-2.18,2.49,3.62,3.62,0,0,0-.31,1.46V86.26A5.05,5.05,0,0,0,84.9,90.23Z"/><path class="cls-9" d="M107.6,86.34a5,5,0,0,1-2.49,4A11.5,11.5,0,0,1,104,91c-4.89,2.58-12.84,2.56-17.75,0A13.56,13.56,0,0,1,85,90.23a5.05,5.05,0,0,1-2.49-4,3.63,3.63,0,0,1,.31-1.47,7,7,0,0,1,3.34-3.2C91,79,99,79,103.89,81.62a7.18,7.18,0,0,1,3.36,3.17A3.6,3.6,0,0,1,107.6,86.34Z"/><path class="cls-9" d="M107.6,94.27c0,1.69-1.22,3.37-3.65,4.66-4.89,2.58-12.84,2.56-17.75,0-2.4-1.27-3.63-2.91-3.71-4.56v-.16a3.62,3.62,0,0,1,.31-1.46A6.11,6.11,0,0,1,85,90.23,13.56,13.56,0,0,0,86.2,91c4.91,2.59,12.86,2.61,17.75,0a11.5,11.5,0,0,0,1.16-.71,6.15,6.15,0,0,1,2.14,2.43A3.6,3.6,0,0,1,107.6,94.27Z"/><path class="cls-9" d="M105.11,90.29A11.5,11.5,0,0,1,104,91c-4.89,2.58-12.84,2.56-17.75,0A13.56,13.56,0,0,1,85,90.23a11.5,11.5,0,0,1,1.16-.71C91,86.94,99,87,103.89,89.55A11.58,11.58,0,0,1,105.11,90.29Z"/><path class="cls-10" d="M107.6,86.34a5,5,0,0,1-2.49,4A11.5,11.5,0,0,1,104,91c-4.89,2.58-12.84,2.56-17.75,0A13.56,13.56,0,0,1,85,90.23a5.05,5.05,0,0,1-2.49-4,3.63,3.63,0,0,1,.31-1.47,7,7,0,0,1,3.34-3.2C91,79,99,79,103.89,81.62a7.18,7.18,0,0,1,3.36,3.17A3.6,3.6,0,0,1,107.6,86.34Z"/><path class="cls-9" d="M140.64,68.72v7.93a3.76,3.76,0,0,0-.35-1.55,6.16,6.16,0,0,0-2.15-2.42A5,5,0,0,0,140.64,68.72Z"/><path class="cls-9" d="M118.1,72.61a6.18,6.18,0,0,0-2.18,2.49,3.63,3.63,0,0,0-.31,1.47V68.64A5.05,5.05,0,0,0,118.1,72.61Z"/><path class="cls-9" d="M140.68,68.72a5,5,0,0,1-2.5,4,10.3,10.3,0,0,1-1.15.7c-4.89,2.58-12.84,2.57-17.76,0a10,10,0,0,1-1.21-.74,5.07,5.07,0,0,1-2.5-4,3.84,3.84,0,0,1,.31-1.47A7.05,7.05,0,0,1,119.21,64c4.89-2.58,12.84-2.57,17.76,0a7.12,7.12,0,0,1,3.36,3.16A3.76,3.76,0,0,1,140.68,68.72Z"/><path class="cls-9" d="M140.68,76.65c0,1.69-1.22,3.37-3.65,4.66-4.89,2.58-12.84,2.57-17.76,0-2.39-1.26-3.63-2.9-3.7-4.55a.92.92,0,0,1,0-.16,3.8,3.8,0,0,1,.31-1.47,6.13,6.13,0,0,1,2.19-2.49,10,10,0,0,0,1.21.74c4.92,2.6,12.87,2.61,17.76,0a10.3,10.3,0,0,0,1.15-.7,6.16,6.16,0,0,1,2.15,2.42A3.76,3.76,0,0,1,140.68,76.65Z"/><path class="cls-9" d="M138.18,72.68a10.3,10.3,0,0,1-1.15.7c-4.89,2.58-12.84,2.57-17.76,0a10,10,0,0,1-1.21-.74,9.75,9.75,0,0,1,1.15-.7c4.89-2.58,12.84-2.57,17.76,0A10,10,0,0,1,138.18,72.68Z"/><path class="cls-10" d="M140.68,68.72a5,5,0,0,1-2.5,4,10.3,10.3,0,0,1-1.15.7c-4.89,2.58-12.84,2.57-17.76,0a10,10,0,0,1-1.21-.74,5.07,5.07,0,0,1-2.5-4,3.84,3.84,0,0,1,.31-1.47A7.05,7.05,0,0,1,119.21,64c4.89-2.58,12.84-2.57,17.76,0a7.12,7.12,0,0,1,3.36,3.16A3.76,3.76,0,0,1,140.68,68.72Z"/><path class="cls-9" d="M171.52,90.49a11.48,11.48,0,0,1-1.16.7c-4.89,2.58-12.84,2.57-17.75,0a10.11,10.11,0,0,1-1.22-.74,11.48,11.48,0,0,1,1.16-.7c4.89-2.58,12.84-2.57,17.76,0A10.8,10.8,0,0,1,171.52,90.49Z"/><path class="cls-12" d="M173.84,86.34v7.93a3.6,3.6,0,0,0-.35-1.55,6.11,6.11,0,0,0-2.15-2.43A5,5,0,0,0,173.84,86.34Z"/><path class="cls-12" d="M151.06,90.23a6,6,0,0,0-2.18,2.49,3.62,3.62,0,0,0-.31,1.46V86.26A5.05,5.05,0,0,0,151.06,90.23Z"/><path class="cls-12" d="M173.76,94.27c0,1.69-1.22,3.37-3.65,4.66-4.89,2.58-12.84,2.56-17.76,0-2.39-1.27-3.62-2.91-3.7-4.56v-.16a3.62,3.62,0,0,1,.31-1.46,6,6,0,0,1,2.18-2.49,13.33,13.33,0,0,0,1.21.74c4.92,2.59,12.87,2.61,17.76,0a10.31,10.31,0,0,0,1.15-.71,6.11,6.11,0,0,1,2.15,2.43A3.6,3.6,0,0,1,173.76,94.27Z"/><path class="cls-14" d="M173.76,86.34a5,5,0,0,1-2.5,4,10.31,10.31,0,0,1-1.15.71c-4.89,2.58-12.84,2.56-17.76,0a13.33,13.33,0,0,1-1.21-.74,5.05,5.05,0,0,1-2.49-4,3.63,3.63,0,0,1,.31-1.47,7,7,0,0,1,3.34-3.2c4.88-2.58,12.84-2.56,17.75,0a7.18,7.18,0,0,1,3.36,3.17A3.6,3.6,0,0,1,173.76,86.34Z"/><path class="cls-15" d="M140.64,138.82v7.93a3.76,3.76,0,0,0-.35-1.55,6.18,6.18,0,0,0-2.15-2.43A5,5,0,0,0,140.64,138.82Z"/><path class="cls-15" d="M117.86,142.71a6.07,6.07,0,0,0-2.19,2.49,3.79,3.79,0,0,0-.31,1.46v-7.92A5.07,5.07,0,0,0,117.86,142.71Z"/><path class="cls-15" d="M140.56,146.75c0,1.69-1.22,3.37-3.65,4.66-4.89,2.58-12.84,2.56-17.76,0-2.39-1.27-3.63-2.91-3.7-4.56a.81.81,0,0,1,0-.16,3.79,3.79,0,0,1,.31-1.46,6.07,6.07,0,0,1,2.19-2.49,10.47,10.47,0,0,0,1.21.74c4.92,2.6,12.87,2.61,17.76,0a9.78,9.78,0,0,0,1.15-.71,6.18,6.18,0,0,1,2.15,2.43A3.76,3.76,0,0,1,140.56,146.75Z"/><path class="cls-4" d="M140.56,138.82a5,5,0,0,1-2.5,4,9.78,9.78,0,0,1-1.15.71c-4.89,2.58-12.84,2.57-17.76,0a10.47,10.47,0,0,1-1.21-.74,5.07,5.07,0,0,1-2.5-4,3.8,3.8,0,0,1,.31-1.47,7.05,7.05,0,0,1,3.34-3.19c4.89-2.58,12.84-2.57,17.76,0a7.18,7.18,0,0,1,3.36,3.17A3.76,3.76,0,0,1,140.56,138.82Z"/></g></svg>